<svg width="24" height="24" viewBox="0 0 24 24" fill="none" xmlns="http://www.w3.org/2000/svg">
<g opacity="0.8">
<path d="M20.952 9.46452L12.9992 1.51168C12.177 0.689491 10.8391 0.689444 10.0169 1.51168C9.27776 2.25075 9.21411 3.37795 9.75992 4.18284L9.74885 4.2382C9.17548 7.10531 7.77959 9.71361 5.71199 11.7812L2.06423 15.4289C1.24007 16.2531 1.23993 17.587 2.06423 18.4112L4.05238 20.3994C4.87649 21.2235 6.21046 21.2236 7.03466 20.3994L7.53172 19.9023L11.0111 23.3816C11.8352 24.2058 13.1691 24.2059 13.9933 23.3816C14.8155 22.5594 14.8155 21.2216 13.9933 20.3994L12.5021 18.9083L12.9992 18.4112C13.8234 17.5871 13.8235 16.2532 12.9992 15.429L12.6614 15.0911C14.3231 13.9278 16.2102 13.1178 18.2255 12.7147L18.2816 12.7035C19.1044 13.259 20.229 13.1697 20.952 12.4467H20.9521C21.7741 11.6246 21.7741 10.2868 20.952 9.46452ZM6.04058 19.4053C5.76589 19.6799 5.32114 19.68 5.04646 19.4052L3.05831 17.4171C2.78357 17.1423 2.78357 16.6977 3.05831 16.423L6.5376 12.9437L9.51987 15.9259C9.17947 16.2664 6.38938 19.0564 6.04058 19.4053ZM12.9992 21.3934C13.2732 21.6675 13.2732 22.1134 12.9992 22.3875C12.7251 22.6615 12.2791 22.6615 12.0051 22.3875L8.52575 18.9082L9.51987 17.9141L12.9992 21.3934ZM10.5139 16.92C10.7253 16.7087 11.0416 16.385 11.5408 15.9587L12.0051 16.423C12.2798 16.6977 12.2798 17.1423 12.0051 17.4171L11.508 17.9141L10.5139 16.92ZM10.5438 14.9618L7.50172 11.9197C9.13198 10.0372 10.2994 7.81513 10.9241 5.40107L17.0624 11.5394C14.6484 12.164 12.4263 13.3315 10.5438 14.9618ZM19.9578 11.4526C19.6831 11.7273 19.2384 11.7273 18.9637 11.4526L11.011 3.49983C10.7362 3.22505 10.7362 2.78049 11.011 2.50575C11.2857 2.23102 11.7304 2.23102 12.0051 2.50575L19.9578 10.4585C20.2318 10.7325 20.2318 11.1785 19.9578 11.4526Z" fill="#070F21"/>
<path d="M7.0346 15.429C6.76015 15.1545 6.31503 15.1545 6.04053 15.429L5.04645 16.4231C4.77195 16.6976 4.77195 17.1427 5.04645 17.4172C5.3209 17.6917 5.76607 17.6917 6.04053 17.4172L7.0346 16.4231C7.3091 16.1486 7.3091 15.7035 7.0346 15.429Z" fill="#070F21"/>
<path d="M16.2276 0C15.8394 0 15.5247 0.314718 15.5247 0.702936V2.10881C15.5247 2.49703 15.8394 2.81174 16.2276 2.81174C16.6158 2.81174 16.9306 2.49703 16.9306 2.10881V0.702936C16.9306 0.314718 16.6158 0 16.2276 0Z" fill="#070F21"/>
<path d="M21.8511 5.62354H20.4452C20.057 5.62354 19.7423 5.93825 19.7423 6.32647C19.7423 6.71469 20.057 7.02941 20.4452 7.02941H21.8511C22.2393 7.02941 22.554 6.71469 22.554 6.32647C22.554 5.93825 22.2392 5.62354 21.8511 5.62354Z" fill="#070F21"/>
<path d="M20.9423 1.61164C20.6678 1.33714 20.2227 1.33714 19.9482 1.61164L18.5423 3.01751C18.2678 3.29201 18.2678 3.73709 18.5423 4.01159C18.8168 4.28608 19.2619 4.28613 19.5364 4.01159L20.9423 2.60571C21.2168 2.33121 21.2168 1.88618 20.9423 1.61164Z" fill="#070F21"/>
</g>
</svg>
