<svg width="24" height="24" viewBox="0 0 24 24" fill="none" xmlns="http://www.w3.org/2000/svg">
<g clip-path="url(#clip0_508_2352)">
<path opacity="0.8" fill-rule="evenodd" clip-rule="evenodd" d="M7.69524 13.391C7.05048 13.391 6.52667 12.8672 6.52667 12.2224C6.52667 11.5795 7.05048 11.0557 7.69524 11.0557C8.34001 11.0557 8.86382 11.5795 8.86382 12.2224C8.86382 12.8672 8.34001 13.391 7.69524 13.391ZM12.2381 13.391C11.5933 13.391 11.0695 12.8672 11.0695 12.2224C11.0695 11.5795 11.5933 11.0557 12.2381 11.0557C12.8829 11.0557 13.4067 11.5795 13.4067 12.2224C13.4067 12.8672 12.8829 13.391 12.2381 13.391ZM15.6125 12.2224C15.6125 12.8672 16.1363 13.391 16.7811 13.391C17.4258 13.391 17.9496 12.8672 17.9496 12.2224C17.9496 11.5795 17.4258 11.0557 16.7811 11.0557C16.1363 11.0557 15.6125 11.5795 15.6125 12.2224Z" fill="#070F21"/>
<path opacity="0.8" d="M12.02 2C6.21 2 2 6.74612 2 12.015C2 13.6975 2.49 15.4291 3.35 17.0115C3.51 17.2729 3.53 17.6024 3.42 17.9139L2.75 20.1572C2.6 20.698 3.06 21.0976 3.57 20.9374L5.59 20.3375C6.14 20.1572 6.57 20.3866 7.08 20.698C8.54 21.5583 10.36 22 12 22C16.96 22 22 18.1642 22 11.985C22 6.65598 17.7 2 12.02 2Z" stroke="#070F21" stroke-width="1.5" stroke-linecap="round" stroke-linejoin="round"/>
<path d="M18 7C16.3431 7 15 5.6569 15 4C15 2.3431 16.3431 1 18 1C19.6569 1 21 2.3431 21 4C21 4.7956 20.6839 5.55865 20.1213 6.1213C19.5586 6.68395 18.7956 7 18 7Z" fill="#E74926"/>
</g>
<defs>
<clipPath id="clip0_508_2352">
<rect width="24" height="24" fill="white"/>
</clipPath>
</defs>
</svg>
