<svg width="14" height="14" viewBox="0 0 14 14" fill="none" xmlns="http://www.w3.org/2000/svg">
<g opacity="0.6" clip-path="url(#clip0_578_5672)">
<path d="M13.8794 2.83843L11.1344 0.0932759C11.0572 0.0160288 10.9524 -0.0273438 10.8432 -0.0273438H4.52941C3.84827 -0.0273438 3.29412 0.526809 3.29412 1.20795V6.6388C1.44376 6.8443 0 8.41743 0 10.3217C0 12.3651 1.66246 14.0276 3.70588 14.0276H12.7647C13.4458 14.0276 14 13.4734 14 12.7923V3.1296C14 3.02037 13.9566 2.91568 13.8794 2.83843ZM11.2549 1.3785L12.1495 2.27316L12.5941 2.71775H11.2549V1.3785ZM0.823529 10.3217C0.823529 8.73235 2.11655 7.43932 3.70588 7.43932C5.29521 7.43932 6.58824 8.73235 6.58824 10.3217C6.58824 11.911 5.29521 13.204 3.70588 13.204C2.11655 13.204 0.823529 11.911 0.823529 10.3217ZM12.7647 13.204H6.03233C6.77249 12.6055 7.2783 11.7283 7.38879 10.7334H11.6667C11.8941 10.7334 12.0784 10.5491 12.0784 10.3217C12.0784 10.0943 11.8941 9.90991 11.6667 9.90991H7.38876C7.32162 9.30544 7.10865 8.74437 6.78572 8.26285H11.6667C11.8941 8.26285 12.0784 8.07849 12.0784 7.85109C12.0784 7.62368 11.8941 7.43932 11.6667 7.43932H6.03233C5.49645 7.00598 4.83791 6.71879 4.11765 6.6388V1.20795C4.11765 0.980903 4.30236 0.796186 4.52941 0.796186H10.4314V3.12952C10.4314 3.35692 10.6157 3.54128 10.8431 3.54128H13.1765V12.7923C13.1765 13.0193 12.9918 13.204 12.7647 13.204Z" fill="#070F21"/>
<path d="M11.6667 4.96875H5.62745C5.40004 4.96875 5.21568 5.15311 5.21568 5.38051C5.21568 5.60792 5.40004 5.79228 5.62745 5.79228H11.6667C11.8941 5.79228 12.0784 5.60792 12.0784 5.38051C12.0784 5.15311 11.8941 4.96875 11.6667 4.96875Z" fill="#070F21"/>
<path d="M5.34214 9.28904C5.18136 9.12826 4.92063 9.12826 4.75982 9.28904L3.12943 10.9194L2.59704 10.3871C2.43626 10.2263 2.17553 10.2263 2.01473 10.3871C1.85392 10.5478 1.85392 10.8086 2.01473 10.9694L2.83825 11.7929C2.91866 11.8733 3.02404 11.9135 3.12943 11.9135C3.23481 11.9135 3.3402 11.8733 3.42057 11.7929L5.34214 9.87133C5.50295 9.71055 5.50295 9.44982 5.34214 9.28904Z" fill="#070F21"/>
</g>
<defs>
<clipPath id="clip0_578_5672">
<rect width="14" height="14" fill="white"/>
</clipPath>
</defs>
</svg>
