<svg width="14" height="14" viewBox="0 0 14 14" fill="none" xmlns="http://www.w3.org/2000/svg">
<g opacity="0.6">
<path fill-rule="evenodd" clip-rule="evenodd" d="M4.31639 3.7334H4.25975C3.77191 3.73333 3.45974 3.73328 3.19032 3.78473C2.0887 3.99509 1.21189 4.82589 0.987602 5.90839C0.932898 6.17239 0.932959 6.47738 0.933052 6.94116L0.933059 7.00007L0.933052 7.05898C0.932959 7.52277 0.932898 7.82775 0.987602 8.09175C1.21189 9.17426 2.0887 10.005 3.19032 10.2154C3.45975 10.2668 3.77192 10.2668 4.25976 10.2667H4.31639H5.13306C5.39079 10.2667 5.59973 10.0578 5.59973 9.80006C5.59973 9.54237 5.39079 9.3334 5.13306 9.3334H4.31639C3.75278 9.3334 3.53646 9.33131 3.36538 9.29865C2.61577 9.1555 2.04546 8.59707 1.90152 7.90239C1.86884 7.74466 1.86639 7.54374 1.86639 7.00007C1.86639 6.45641 1.86884 6.25549 1.90152 6.09775C2.04546 5.40308 2.61577 4.84464 3.36538 4.70149C3.53646 4.66883 3.75278 4.66674 4.31639 4.66674H5.13306C5.39079 4.66674 5.59973 4.4578 5.59973 4.20007C5.59973 3.94234 5.39079 3.7334 5.13306 3.7334H4.31639ZM9.68305 4.66674C10.2467 4.66674 10.463 4.66883 10.6341 4.70149C11.3837 4.84464 11.954 5.40308 12.098 6.09775C12.1306 6.25549 12.133 6.45641 12.133 7.00007C12.133 7.54374 12.1306 7.74466 12.098 7.90239C11.954 8.59707 11.3837 9.1555 10.6341 9.29865C10.463 9.33131 10.2467 9.3334 9.68305 9.3334H8.86639C8.60866 9.3334 8.39973 9.54237 8.39973 9.80006C8.39973 10.0578 8.60866 10.2667 8.86639 10.2667H9.68305H9.7397C10.2276 10.2668 10.5397 10.2668 10.8091 10.2154C11.9107 10.005 12.7876 9.17426 13.0119 8.09175C13.0666 7.82775 13.0665 7.52277 13.0664 7.05899V7.00007V6.94115C13.0665 6.47738 13.0666 6.17239 13.0119 5.90839C12.7876 4.82589 11.9107 3.99509 10.8091 3.78473C10.5397 3.73328 10.2276 3.73333 9.7397 3.7334H9.68305H8.86639C8.60866 3.7334 8.39973 3.94234 8.39973 4.20007C8.39973 4.4578 8.60866 4.66674 8.86639 4.66674H9.68305ZM4.66702 6.53339C4.40929 6.53339 4.20035 6.74233 4.20035 7.00006C4.20035 7.25779 4.40929 7.46673 4.66702 7.46673H9.3337C9.5914 7.46673 9.80037 7.25779 9.80037 7.00006C9.80037 6.74233 9.5914 6.53339 9.3337 6.53339H4.66702Z" fill="#070F21"/>
</g>
</svg>
