<svg width="14" height="14" viewBox="0 0 14 14" fill="none" xmlns="http://www.w3.org/2000/svg">
<g opacity="0.6">
<path d="M4.08334 4.0835H9.91668" stroke="#070F21" stroke-linecap="round" stroke-linejoin="round"/>
<path d="M4.08334 6.4165H6.41668" stroke="#070F21" stroke-linecap="round" stroke-linejoin="round"/>
<path d="M1.75 2.91667V12.1292C1.75001 12.187 1.76715 12.2434 1.79923 12.2913C1.83132 12.3393 1.87691 12.3767 1.93025 12.3987C1.98359 12.4208 2.04226 12.4265 2.09885 12.4152C2.15545 12.4039 2.20741 12.376 2.24817 12.3352L4.49575 10.0876C4.60512 9.97818 4.75347 9.9167 4.90817 9.91667H11.0833C11.3928 9.91667 11.6895 9.79375 11.9083 9.57496C12.1271 9.35616 12.25 9.05942 12.25 8.75V2.91667C12.25 2.60725 12.1271 2.3105 11.9083 2.09171C11.6895 1.87292 11.3928 1.75 11.0833 1.75H2.91667C2.60725 1.75 2.3105 1.87292 2.09171 2.09171C1.87292 2.3105 1.75 2.60725 1.75 2.91667V2.91667Z" stroke="#070F21" stroke-linecap="round" stroke-linejoin="round"/>
</g>
</svg>
