<svg width="15" height="16" viewBox="0 0 15 16" fill="none" xmlns="http://www.w3.org/2000/svg">
<mask id="path-1-outside-1_693_1043" maskUnits="userSpaceOnUse" x="-0.832545" y="-0.207031" width="16" height="16" fill="black">
<rect fill="white" x="-0.832545" y="-0.207031" width="16" height="16"/>
<path d="M0.306183 2.47477C0.787885 2.01866 2.41472 0.12927 2.98945 1.036C3.06908 1.16212 3.09536 1.31472 3.0625 1.46022C3.02964 1.60572 2.94034 1.73221 2.81422 1.81188C2.19491 2.20323 1.63295 2.67868 1.14442 3.22461C1.09179 3.28373 1.02723 3.33101 0.954986 3.36335C0.882744 3.39568 0.804465 3.41233 0.725317 3.41218C0.617439 3.4106 0.51226 3.37822 0.422165 3.31887C0.332069 3.25951 0.260807 3.17565 0.216769 3.07716C0.172731 2.97866 0.15775 2.86964 0.173591 2.76292C0.189432 2.6562 0.235435 2.55623 0.306183 2.47477V2.47477ZM11.1116 1.81188C11.731 2.20352 12.2931 2.67904 12.782 3.22489C12.8346 3.28393 12.8992 3.33114 12.9715 3.36342C13.0437 3.3957 13.122 3.41232 13.2011 3.41219C13.309 3.41059 13.4142 3.37819 13.5043 3.31882C13.5944 3.25944 13.6656 3.17555 13.7097 3.07704C13.7537 2.97852 13.7687 2.86948 13.7528 2.76274C13.7369 2.65601 13.6909 2.55603 13.6201 2.47457C13.1367 2.0182 11.5141 0.13044 10.9364 1.03595C10.8568 1.16208 10.8305 1.31468 10.8633 1.46019C10.8962 1.6057 10.9855 1.73221 11.1116 1.81188V1.81188ZM11.5384 13.4328C11.9002 13.0973 12.5576 12.5535 12.0283 12.0715C11.9149 11.9748 11.7678 11.9269 11.6192 11.9383C11.4705 11.9498 11.3325 12.0196 11.2352 12.1325C10.4876 13.0057 9.4904 13.6288 8.37789 13.918C7.26538 14.2072 6.09096 14.1486 5.01277 13.7501C3.93458 13.3516 3.00439 12.6322 2.34743 11.689C1.69047 10.7457 1.33829 9.62383 1.33832 8.47434C1.36172 2.86087 8.73597 0.738073 11.729 5.48607C11.8099 5.60921 11.9358 5.69573 12.0797 5.72706C12.2236 5.75838 12.3741 5.73201 12.4988 5.6536C12.6235 5.5752 12.7125 5.45101 12.7466 5.30772C12.7808 5.16443 12.7574 5.01346 12.6814 4.88724C12.0761 3.91708 11.2332 3.11745 10.2325 2.56405C9.23181 2.01065 8.10644 1.72178 6.96292 1.7248C0.834092 1.71858 -2.09188 9.34769 2.39324 13.4273L1.55693 14.2637C1.5047 14.3159 1.46328 14.3779 1.43501 14.4462C1.40675 14.5144 1.3922 14.5875 1.3922 14.6614C1.3922 14.7353 1.40675 14.8084 1.43501 14.8766C1.46328 14.9449 1.5047 15.0069 1.55693 15.0591C1.60915 15.1113 1.67115 15.1527 1.73938 15.181C1.80762 15.2093 1.88075 15.2238 1.9546 15.2238C2.02846 15.2238 2.10159 15.2093 2.16982 15.181C2.23806 15.1527 2.30006 15.1113 2.35228 15.0591L3.28492 14.1262C4.38017 14.8358 5.65738 15.2132 6.9624 15.2129C8.26742 15.2126 9.54446 14.8346 10.6394 14.1245L11.5741 15.0591C11.6263 15.1116 11.6883 15.1533 11.7566 15.1818C11.8249 15.2103 11.8982 15.2251 11.9722 15.2252C12.0462 15.2253 12.1195 15.2108 12.1879 15.1826C12.2564 15.1543 12.3185 15.1128 12.3709 15.0605C12.4232 15.0081 12.4647 14.946 12.493 14.8775C12.5212 14.8091 12.5357 14.7358 12.5356 14.6618C12.5354 14.5878 12.5207 14.5145 12.4922 14.4462C12.4637 14.3779 12.422 14.3159 12.3694 14.2637L11.5384 13.4328ZM6.96292 4.37645C6.88905 4.37643 6.8159 4.39096 6.74765 4.41922C6.6794 4.44748 6.61739 4.48891 6.56516 4.54114C6.51292 4.59337 6.47149 4.65539 6.44324 4.72364C6.41498 4.79189 6.40044 4.86504 6.40046 4.93891V8.47433C6.40044 8.5482 6.41498 8.62135 6.44324 8.6896C6.47149 8.75785 6.51292 8.81986 6.56516 8.8721C6.61739 8.92433 6.6794 8.96576 6.74765 8.99402C6.8159 9.02228 6.88905 9.03681 6.96292 9.03679H9.31987C9.46715 9.03392 9.60742 8.97339 9.71056 8.86822C9.81369 8.76305 9.87146 8.62162 9.87146 8.47432C9.87146 8.32701 9.81368 8.18559 9.71053 8.08042C9.60739 7.97525 9.46712 7.91474 9.31984 7.91187H7.52538V4.93891C7.5254 4.86504 7.51087 4.79189 7.48261 4.72364C7.45435 4.65539 7.41292 4.59338 7.36068 4.54114C7.30845 4.48891 7.24644 4.44748 7.17819 4.41922C7.10994 4.39096 7.03679 4.37643 6.96292 4.37645V4.37645ZM14.2749 9.68632H13.1955L14.7143 7.78774C14.7789 7.70455 14.819 7.60501 14.8302 7.50028C14.8413 7.39556 14.823 7.2898 14.7774 7.19489C14.7317 7.09998 14.6605 7.01967 14.5718 6.96299C14.483 6.90631 14.3802 6.8755 14.2749 6.87402H12.025C11.8777 6.87682 11.7374 6.93732 11.6342 7.0425C11.531 7.14768 11.4732 7.28915 11.4732 7.4365C11.4732 7.58385 11.531 7.72532 11.6342 7.8305C11.7374 7.93567 11.8778 7.99615 12.0251 7.99895H13.1044L11.5856 9.89752C11.521 9.98071 11.4809 10.0803 11.4698 10.185C11.4586 10.2897 11.4769 10.3955 11.5226 10.4904C11.5682 10.5853 11.6394 10.6656 11.7282 10.7223C11.817 10.779 11.9198 10.8098 12.0251 10.8112H14.2749C14.4222 10.8084 14.5625 10.7479 14.6656 10.6427C14.7688 10.5375 14.8265 10.3961 14.8265 10.2488C14.8265 10.1015 14.7687 9.96005 14.6656 9.85488C14.5625 9.74972 14.4222 9.6892 14.2749 9.68633V9.68632Z"/>
</mask>
<path d="M0.306183 2.47477C0.787885 2.01866 2.41472 0.12927 2.98945 1.036C3.06908 1.16212 3.09536 1.31472 3.0625 1.46022C3.02964 1.60572 2.94034 1.73221 2.81422 1.81188C2.19491 2.20323 1.63295 2.67868 1.14442 3.22461C1.09179 3.28373 1.02723 3.33101 0.954986 3.36335C0.882744 3.39568 0.804465 3.41233 0.725317 3.41218C0.617439 3.4106 0.51226 3.37822 0.422165 3.31887C0.332069 3.25951 0.260807 3.17565 0.216769 3.07716C0.172731 2.97866 0.15775 2.86964 0.173591 2.76292C0.189432 2.6562 0.235435 2.55623 0.306183 2.47477V2.47477ZM11.1116 1.81188C11.731 2.20352 12.2931 2.67904 12.782 3.22489C12.8346 3.28393 12.8992 3.33114 12.9715 3.36342C13.0437 3.3957 13.122 3.41232 13.2011 3.41219C13.309 3.41059 13.4142 3.37819 13.5043 3.31882C13.5944 3.25944 13.6656 3.17555 13.7097 3.07704C13.7537 2.97852 13.7687 2.86948 13.7528 2.76274C13.7369 2.65601 13.6909 2.55603 13.6201 2.47457C13.1367 2.0182 11.5141 0.13044 10.9364 1.03595C10.8568 1.16208 10.8305 1.31468 10.8633 1.46019C10.8962 1.6057 10.9855 1.73221 11.1116 1.81188V1.81188ZM11.5384 13.4328C11.9002 13.0973 12.5576 12.5535 12.0283 12.0715C11.9149 11.9748 11.7678 11.9269 11.6192 11.9383C11.4705 11.9498 11.3325 12.0196 11.2352 12.1325C10.4876 13.0057 9.4904 13.6288 8.37789 13.918C7.26538 14.2072 6.09096 14.1486 5.01277 13.7501C3.93458 13.3516 3.00439 12.6322 2.34743 11.689C1.69047 10.7457 1.33829 9.62383 1.33832 8.47434C1.36172 2.86087 8.73597 0.738073 11.729 5.48607C11.8099 5.60921 11.9358 5.69573 12.0797 5.72706C12.2236 5.75838 12.3741 5.73201 12.4988 5.6536C12.6235 5.5752 12.7125 5.45101 12.7466 5.30772C12.7808 5.16443 12.7574 5.01346 12.6814 4.88724C12.0761 3.91708 11.2332 3.11745 10.2325 2.56405C9.23181 2.01065 8.10644 1.72178 6.96292 1.7248C0.834092 1.71858 -2.09188 9.34769 2.39324 13.4273L1.55693 14.2637C1.5047 14.3159 1.46328 14.3779 1.43501 14.4462C1.40675 14.5144 1.3922 14.5875 1.3922 14.6614C1.3922 14.7353 1.40675 14.8084 1.43501 14.8766C1.46328 14.9449 1.5047 15.0069 1.55693 15.0591C1.60915 15.1113 1.67115 15.1527 1.73938 15.181C1.80762 15.2093 1.88075 15.2238 1.9546 15.2238C2.02846 15.2238 2.10159 15.2093 2.16982 15.181C2.23806 15.1527 2.30006 15.1113 2.35228 15.0591L3.28492 14.1262C4.38017 14.8358 5.65738 15.2132 6.9624 15.2129C8.26742 15.2126 9.54446 14.8346 10.6394 14.1245L11.5741 15.0591C11.6263 15.1116 11.6883 15.1533 11.7566 15.1818C11.8249 15.2103 11.8982 15.2251 11.9722 15.2252C12.0462 15.2253 12.1195 15.2108 12.1879 15.1826C12.2564 15.1543 12.3185 15.1128 12.3709 15.0605C12.4232 15.0081 12.4647 14.946 12.493 14.8775C12.5212 14.8091 12.5357 14.7358 12.5356 14.6618C12.5354 14.5878 12.5207 14.5145 12.4922 14.4462C12.4637 14.3779 12.422 14.3159 12.3694 14.2637L11.5384 13.4328ZM6.96292 4.37645C6.88905 4.37643 6.8159 4.39096 6.74765 4.41922C6.6794 4.44748 6.61739 4.48891 6.56516 4.54114C6.51292 4.59337 6.47149 4.65539 6.44324 4.72364C6.41498 4.79189 6.40044 4.86504 6.40046 4.93891V8.47433C6.40044 8.5482 6.41498 8.62135 6.44324 8.6896C6.47149 8.75785 6.51292 8.81986 6.56516 8.8721C6.61739 8.92433 6.6794 8.96576 6.74765 8.99402C6.8159 9.02228 6.88905 9.03681 6.96292 9.03679H9.31987C9.46715 9.03392 9.60742 8.97339 9.71056 8.86822C9.81369 8.76305 9.87146 8.62162 9.87146 8.47432C9.87146 8.32701 9.81368 8.18559 9.71053 8.08042C9.60739 7.97525 9.46712 7.91474 9.31984 7.91187H7.52538V4.93891C7.5254 4.86504 7.51087 4.79189 7.48261 4.72364C7.45435 4.65539 7.41292 4.59338 7.36068 4.54114C7.30845 4.48891 7.24644 4.44748 7.17819 4.41922C7.10994 4.39096 7.03679 4.37643 6.96292 4.37645V4.37645ZM14.2749 9.68632H13.1955L14.7143 7.78774C14.7789 7.70455 14.819 7.60501 14.8302 7.50028C14.8413 7.39556 14.823 7.2898 14.7774 7.19489C14.7317 7.09998 14.6605 7.01967 14.5718 6.96299C14.483 6.90631 14.3802 6.8755 14.2749 6.87402H12.025C11.8777 6.87682 11.7374 6.93732 11.6342 7.0425C11.531 7.14768 11.4732 7.28915 11.4732 7.4365C11.4732 7.58385 11.531 7.72532 11.6342 7.8305C11.7374 7.93567 11.8778 7.99615 12.0251 7.99895H13.1044L11.5856 9.89752C11.521 9.98071 11.4809 10.0803 11.4698 10.185C11.4586 10.2897 11.4769 10.3955 11.5226 10.4904C11.5682 10.5853 11.6394 10.6656 11.7282 10.7223C11.817 10.779 11.9198 10.8098 12.0251 10.8112H14.2749C14.4222 10.8084 14.5625 10.7479 14.6656 10.6427C14.7688 10.5375 14.8265 10.3961 14.8265 10.2488C14.8265 10.1015 14.7687 9.96005 14.6656 9.85488C14.5625 9.74972 14.4222 9.6892 14.2749 9.68633V9.68632Z" fill="#070F21"/>
<path d="M0.306183 2.47477C0.787885 2.01866 2.41472 0.12927 2.98945 1.036C3.06908 1.16212 3.09536 1.31472 3.0625 1.46022C3.02964 1.60572 2.94034 1.73221 2.81422 1.81188C2.19491 2.20323 1.63295 2.67868 1.14442 3.22461C1.09179 3.28373 1.02723 3.33101 0.954986 3.36335C0.882744 3.39568 0.804465 3.41233 0.725317 3.41218C0.617439 3.4106 0.51226 3.37822 0.422165 3.31887C0.332069 3.25951 0.260807 3.17565 0.216769 3.07716C0.172731 2.97866 0.15775 2.86964 0.173591 2.76292C0.189432 2.6562 0.235435 2.55623 0.306183 2.47477V2.47477ZM11.1116 1.81188C11.731 2.20352 12.2931 2.67904 12.782 3.22489C12.8346 3.28393 12.8992 3.33114 12.9715 3.36342C13.0437 3.3957 13.122 3.41232 13.2011 3.41219C13.309 3.41059 13.4142 3.37819 13.5043 3.31882C13.5944 3.25944 13.6656 3.17555 13.7097 3.07704C13.7537 2.97852 13.7687 2.86948 13.7528 2.76274C13.7369 2.65601 13.6909 2.55603 13.6201 2.47457C13.1367 2.0182 11.5141 0.13044 10.9364 1.03595C10.8568 1.16208 10.8305 1.31468 10.8633 1.46019C10.8962 1.6057 10.9855 1.73221 11.1116 1.81188V1.81188ZM11.5384 13.4328C11.9002 13.0973 12.5576 12.5535 12.0283 12.0715C11.9149 11.9748 11.7678 11.9269 11.6192 11.9383C11.4705 11.9498 11.3325 12.0196 11.2352 12.1325C10.4876 13.0057 9.4904 13.6288 8.37789 13.918C7.26538 14.2072 6.09096 14.1486 5.01277 13.7501C3.93458 13.3516 3.00439 12.6322 2.34743 11.689C1.69047 10.7457 1.33829 9.62383 1.33832 8.47434C1.36172 2.86087 8.73597 0.738073 11.729 5.48607C11.8099 5.60921 11.9358 5.69573 12.0797 5.72706C12.2236 5.75838 12.3741 5.73201 12.4988 5.6536C12.6235 5.5752 12.7125 5.45101 12.7466 5.30772C12.7808 5.16443 12.7574 5.01346 12.6814 4.88724C12.0761 3.91708 11.2332 3.11745 10.2325 2.56405C9.23181 2.01065 8.10644 1.72178 6.96292 1.7248C0.834092 1.71858 -2.09188 9.34769 2.39324 13.4273L1.55693 14.2637C1.5047 14.3159 1.46328 14.3779 1.43501 14.4462C1.40675 14.5144 1.3922 14.5875 1.3922 14.6614C1.3922 14.7353 1.40675 14.8084 1.43501 14.8766C1.46328 14.9449 1.5047 15.0069 1.55693 15.0591C1.60915 15.1113 1.67115 15.1527 1.73938 15.181C1.80762 15.2093 1.88075 15.2238 1.9546 15.2238C2.02846 15.2238 2.10159 15.2093 2.16982 15.181C2.23806 15.1527 2.30006 15.1113 2.35228 15.0591L3.28492 14.1262C4.38017 14.8358 5.65738 15.2132 6.9624 15.2129C8.26742 15.2126 9.54446 14.8346 10.6394 14.1245L11.5741 15.0591C11.6263 15.1116 11.6883 15.1533 11.7566 15.1818C11.8249 15.2103 11.8982 15.2251 11.9722 15.2252C12.0462 15.2253 12.1195 15.2108 12.1879 15.1826C12.2564 15.1543 12.3185 15.1128 12.3709 15.0605C12.4232 15.0081 12.4647 14.946 12.493 14.8775C12.5212 14.8091 12.5357 14.7358 12.5356 14.6618C12.5354 14.5878 12.5207 14.5145 12.4922 14.4462C12.4637 14.3779 12.422 14.3159 12.3694 14.2637L11.5384 13.4328ZM6.96292 4.37645C6.88905 4.37643 6.8159 4.39096 6.74765 4.41922C6.6794 4.44748 6.61739 4.48891 6.56516 4.54114C6.51292 4.59337 6.47149 4.65539 6.44324 4.72364C6.41498 4.79189 6.40044 4.86504 6.40046 4.93891V8.47433C6.40044 8.5482 6.41498 8.62135 6.44324 8.6896C6.47149 8.75785 6.51292 8.81986 6.56516 8.8721C6.61739 8.92433 6.6794 8.96576 6.74765 8.99402C6.8159 9.02228 6.88905 9.03681 6.96292 9.03679H9.31987C9.46715 9.03392 9.60742 8.97339 9.71056 8.86822C9.81369 8.76305 9.87146 8.62162 9.87146 8.47432C9.87146 8.32701 9.81368 8.18559 9.71053 8.08042C9.60739 7.97525 9.46712 7.91474 9.31984 7.91187H7.52538V4.93891C7.5254 4.86504 7.51087 4.79189 7.48261 4.72364C7.45435 4.65539 7.41292 4.59338 7.36068 4.54114C7.30845 4.48891 7.24644 4.44748 7.17819 4.41922C7.10994 4.39096 7.03679 4.37643 6.96292 4.37645V4.37645ZM14.2749 9.68632H13.1955L14.7143 7.78774C14.7789 7.70455 14.819 7.60501 14.8302 7.50028C14.8413 7.39556 14.823 7.2898 14.7774 7.19489C14.7317 7.09998 14.6605 7.01967 14.5718 6.96299C14.483 6.90631 14.3802 6.8755 14.2749 6.87402H12.025C11.8777 6.87682 11.7374 6.93732 11.6342 7.0425C11.531 7.14768 11.4732 7.28915 11.4732 7.4365C11.4732 7.58385 11.531 7.72532 11.6342 7.8305C11.7374 7.93567 11.8778 7.99615 12.0251 7.99895H13.1044L11.5856 9.89752C11.521 9.98071 11.4809 10.0803 11.4698 10.185C11.4586 10.2897 11.4769 10.3955 11.5226 10.4904C11.5682 10.5853 11.6394 10.6656 11.7282 10.7223C11.817 10.779 11.9198 10.8098 12.0251 10.8112H14.2749C14.4222 10.8084 14.5625 10.7479 14.6656 10.6427C14.7688 10.5375 14.8265 10.3961 14.8265 10.2488C14.8265 10.1015 14.7687 9.96005 14.6656 9.85488C14.5625 9.74972 14.4222 9.6892 14.2749 9.68633V9.68632Z" stroke="#070F21" stroke-width="0.2" mask="url(#path-1-outside-1_693_1043)"/>
</svg>
